<?xml version="1.0" encoding="UTF-8" standalone="no"?>
<svg width="61px" height="19px" viewBox="0 0 61 19" version="1.1" xmlns="http://www.w3.org/2000/svg" xmlns:xlink="http://www.w3.org/1999/xlink">
    <!-- Generator: Sketch 46.2 (44496) - http://www.bohemiancoding.com/sketch -->
    <title>google-logo-FOR_PHIL</title>
    <desc>Created with Sketch.</desc>
    <defs></defs>
    <g id="Page-1" stroke="none" stroke-width="1" fill="none" fill-rule="evenodd">
        <g id="google-logo-FOR_PHIL" fill-rule="nonzero">
            <path d="M7.28734322,6.825 L7.28734322,8.875 L11.9806157,8.875 C11.8369441,10.025 11.4697834,10.8666667 10.9110604,11.4583333 C10.2246294,12.175 9.15507412,12.9583333 7.28734322,12.9583333 C4.39794755,12.9583333 2.1391106,10.525 2.1391106,7.50833333 C2.1391106,4.49166667 4.39794755,2.05833333 7.28734322,2.05833333 C8.84378563,2.05833333 9.98517674,2.7 10.8232611,3.525 L12.2041049,2.08333333 C11.0387685,0.9 9.47434436,0 7.28734322,0 C3.32839225,0 0,3.36666667 0,7.5 C0,11.6333333 3.32839225,15 7.28734322,15 C9.42645382,15 11.0387685,14.2666667 12.299886,12.9 C13.5929304,11.55 14,9.64166667 14,8.10833333 C14,7.63333333 13.968073,7.19166667 13.8962372,6.825 L7.28734322,6.825 Z" id="Shape" fill="#4285F4"></path>
            <path d="M21,5 C18.2469983,5 16,7.09982788 16,10 C16,12.8743546 18.2469983,15 21,15 C23.7530017,15 26,12.8829604 26,10 C26,7.09982788 23.7530017,5 21,5 Z M21,13.0292599 C19.490566,13.0292599 18.186964,11.7814114 18.186964,10 C18.186964,8.20137694 19.490566,6.9707401 21,6.9707401 C22.509434,6.9707401 23.813036,8.20137694 23.813036,10 C23.813036,11.7814114 22.509434,13.0292599 21,13.0292599 Z" id="Shape" fill="#EA4335"></path>
            <path d="M44.02,6.08333333 L43.9463636,6.08333333 C43.48,5.51666667 42.58,5 41.4427273,5 C39.07,5 37,7.10833333 37,9.84166667 C37,12.5583333 39.07,14.6833333 41.4427273,14.6833333 C42.58,14.6833333 43.48,14.1666667 43.9463636,13.5833333 L44.02,13.5833333 L44.02,14.2583333 C44.02,16.1083333 43.0463636,17.1 41.4836364,17.1 C40.2072727,17.1 39.4136364,16.1666667 39.0863636,15.375 L37.27,16.1416667 C37.7936364,17.425 39.1763636,19 41.4836364,19 C43.93,19 46,17.5333333 46,13.9583333 L46,5.25 L44.02,5.25 L44.02,6.08333333 Z M41.6227273,12.775 C40.1827273,12.775 39.0863636,11.525 39.0863636,9.84166667 C39.0863636,8.13333333 40.1827273,6.90833333 41.6227273,6.90833333 C43.0463636,6.90833333 44.1590909,8.15833333 44.1590909,9.85833333 C44.1672727,11.55 43.0463636,12.775 41.6227273,12.775 Z" id="Shape" fill="#4285F4"></path>
            <path d="M32,5 C29.2469983,5 27,7.09982788 27,10 C27,12.8743546 29.2469983,15 32,15 C34.7530017,15 37,12.8829604 37,10 C37,7.09982788 34.7530017,5 32,5 Z M32,13.0292599 C30.490566,13.0292599 29.186964,11.7814114 29.186964,10 C29.186964,8.20137694 30.490566,6.9707401 32,6.9707401 C33.509434,6.9707401 34.813036,8.20137694 34.813036,10 C34.813036,11.7814114 33.509434,13.0292599 32,13.0292599 Z" id="Shape" fill="#FBBC05"></path>
            <polygon id="Shape" fill="#34A853" points="48 0 50 0 50 15 48 15"></polygon>
            <path d="M56.8403361,13.0292599 C55.7478992,13.0292599 54.9747899,12.5215146 54.4705882,11.5146299 L61,8.75215146 L60.7815126,8.18416523 C60.3781513,7.06540448 59.1344538,5 56.605042,5 C54.092437,5 52,7.02237522 52,10 C52,12.8055077 54.0672269,15 56.8403361,15 C59.0756303,15 60.3697479,13.5972461 60.907563,12.788296 L59.2436975,11.6523236 C58.6890756,12.4784854 57.9327731,13.0292599 56.8403361,13.0292599 Z M56.6890756,6.87607573 C57.5546218,6.87607573 58.2941176,7.33218589 58.5378151,7.97762478 L54.1260504,9.84509466 C54.1260504,7.74526678 55.5798319,6.87607573 56.6890756,6.87607573 L56.6890756,6.87607573 Z" id="Shape" fill="#EA4335"></path>
        </g>
    </g>
</svg>