<?xml version="1.0" encoding="UTF-8" standalone="no"?>
<svg width="70px" height="16px" viewBox="0 0 70 16" version="1.1" xmlns="http://www.w3.org/2000/svg" xmlns:xlink="http://www.w3.org/1999/xlink">
    <!-- Generator: Sketch 46.2 (44496) - http://www.bohemiancoding.com/sketch -->
    <title>Group 3</title>
    <desc>Created with Sketch.</desc>
    <defs></defs>
    <g id="Page-1" stroke="none" stroke-width="1" fill="none" fill-rule="evenodd">
        <g id="Group-3" fill="#000000">
            <g id="Group-9">
                <path d="M38.9190914,15.9232382 C34.9378096,15.9232382 31.710343,12.537628 31.710343,8.36126609 C31.710343,4.18490421 34.9378096,0.79929396 38.9190914,0.79929396 C42.9003732,0.79929396 46.1278399,4.18490421 46.1278399,8.36126609 L46.1278399,15.9232382 L38.9190914,15.9232382 Z M35.458073,10.4209368 C35.458073,10.8720794 35.5297502,11.26011 35.6731067,11.5850401 C35.8164632,11.9099702 36.0084556,12.1785035 36.2490898,12.3906479 C36.4897239,12.6027924 36.7687529,12.7598843 37.0861852,12.8619285 C37.4036175,12.9639727 37.7364044,13.014994 38.0845559,13.014994 C38.4173478,13.014994 38.7296555,12.96263 39.0214884,12.8579004 C39.3133213,12.7531709 39.5769909,12.6283029 39.8125052,12.4832928 C40.0480195,12.3382827 40.2528114,12.1905894 40.4268872,12.0402085 C40.6009629,11.8898276 40.7366376,11.7689877 40.8339152,11.677685 L40.8339152,12.2818909 C40.8339152,12.4430132 40.8467147,12.5705665 40.8723141,12.6645546 C40.8979135,12.7585426 40.9375919,12.8297039 40.9913506,12.8780406 C41.0451093,12.9263774 41.1142266,12.955916 41.1987045,12.9666575 C41.2831825,12.977399 41.3817386,12.9827697 41.4943758,12.9827697 C41.612133,12.9827697 41.738848,12.973371 41.8745247,12.9545734 C42.0102014,12.9357758 42.1445961,12.9142931 42.2777128,12.8901248 C42.4108296,12.8659564 42.5375446,12.8391031 42.6578617,12.809564 C42.7781788,12.7800249 42.8818547,12.7518289 42.9688926,12.7249752 L42.9688926,12.1127132 L41.9858814,12.1127132 L41.9858814,6.67486038 C41.9858814,6.09481984 41.9372433,5.60340398 41.8399657,5.20059805 C41.7426881,4.79779213 41.5814144,4.46883889 41.3561399,4.21372847 C41.1308654,3.95861805 40.835197,3.7733301 40.4691259,3.65785907 C40.1030548,3.54238803 39.6537925,3.48465338 39.1213255,3.48465338 C38.8806913,3.48465338 38.636221,3.50882138 38.387907,3.55715809 C38.1395931,3.6054948 37.8976826,3.66725745 37.6621683,3.74244789 C37.426654,3.81763833 37.2026629,3.90088364 36.990188,3.99218631 C36.7777132,4.08348899 36.5857208,4.1747903 36.4142049,4.26609297 C36.2426891,4.35739565 36.0967748,4.44332629 35.9764578,4.52388748 C35.8561407,4.60444866 35.772944,4.66889665 35.7268651,4.71723336 L36.072455,5.4422804 L36.0801347,5.4422804 C36.2030117,5.36708996 36.3591656,5.27847399 36.548601,5.17642982 C36.7380364,5.07438565 36.951788,4.97771368 37.1898622,4.886411 C37.4279364,4.79510832 37.6864862,4.71723368 37.9655194,4.65278473 C38.2445526,4.58833578 38.5376611,4.55611179 38.8448536,4.55611179 C39.2134846,4.55611179 39.5193926,4.59773445 39.7625867,4.68098101 C40.0057807,4.76422756 40.1990531,4.89580886 40.3424096,5.07572884 C40.4857662,5.25564882 40.5868822,5.48927275 40.6457607,5.77660765 C40.7046393,6.06394254 40.7340782,6.41169311 40.7340782,6.81986979 L40.7340782,7.33545879 C40.2988887,7.34620029 39.8675457,7.37573894 39.4400361,7.42407566 C39.0125265,7.47241237 38.6029427,7.54625901 38.2112722,7.64561781 C37.8196017,7.7449766 37.456096,7.87387257 37.1207442,8.03230956 C36.7853924,8.19074656 36.4948438,8.38274784 36.2490898,8.60831916 C36.0033358,8.83389048 35.8100634,9.09705307 35.6692668,9.39781483 C35.5284702,9.69857659 35.458073,10.0396138 35.458073,10.4209368 Z M36.855792,10.2598152 C36.855792,9.94831196 36.9351488,9.66098137 37.093865,9.39781483 C37.2525811,9.13464829 37.4919317,8.90908036 37.8119239,8.72110426 C38.1319161,8.53312816 38.5351003,8.38543487 39.0214884,8.27801995 C39.5078766,8.17060504 40.0787341,8.11421305 40.7340782,8.10884231 L40.7340782,11.0331987 C40.575362,11.1620966 40.4025688,11.2869646 40.2156934,11.4078064 C40.0288179,11.5286481 39.8381054,11.6347188 39.6435502,11.7260215 C39.4489949,11.8173241 39.2582824,11.8911708 39.0714069,11.9475636 C38.8845315,12.0039564 38.7117383,12.0321524 38.5530222,12.0321524 C38.312388,12.0321524 38.0896768,12.0012711 37.8848818,11.9395075 C37.6800868,11.8777439 37.5008938,11.777044 37.3472975,11.6374046 C37.1937013,11.4977652 37.073386,11.3151626 36.9863481,11.0895913 C36.8993103,10.8640199 36.855792,10.5874307 36.855792,10.2598152 Z" id="Combined-Shape"></path>
                <path d="M0.0466322584,12.1449375 L1.30611529,12.0321524 L1.30611529,4.76556983 L0.0927109061,4.47555101 L0.0927109061,3.73439181 L2.08177253,3.4765973 L2.1201714,3.4765973 L2.41968261,3.73439181 L2.41968261,4.31442944 L2.41200284,5.24893452 L2.41968261,5.24893452 C2.45040187,5.2113393 2.5079996,5.14152066 2.59247754,5.03947649 C2.67695549,4.93743232 2.7857512,4.81793502 2.91886796,4.68098101 C3.05198472,4.54402699 3.20813858,4.40170436 3.38733421,4.25400886 C3.56652985,4.10631335 3.76620199,3.97070406 3.98635663,3.8471769 C4.20651127,3.72364975 4.44458191,3.62160712 4.70057567,3.54104593 C4.95656944,3.46048475 5.23047866,3.42020476 5.52231156,3.42020476 C5.62982894,3.42020476 5.72070536,3.42691809 5.79494356,3.44034495 C5.86918175,3.45377182 5.93445918,3.47122648 5.99077781,3.49270946 L5.99077781,4.94280355 C5.95493868,4.91594982 5.86790211,4.8850685 5.72966547,4.85015865 C5.59142884,4.8152488 5.43783488,4.79779414 5.26887899,4.79779414 C4.93096722,4.79779414 4.62249936,4.83001813 4.34346615,4.89446708 C4.06443295,4.95891603 3.81484277,5.04081867 3.59468813,5.14017747 C3.37453349,5.23953626 3.17998114,5.3456069 3.01102526,5.45839256 C2.84206937,5.57117822 2.69871501,5.67590619 2.58095788,5.77257961 L2.58095788,12.0240963 L4.66985657,12.1529936 L4.66985657,12.8297042 L0.0466322584,12.8297042 L0.0466322584,12.1449375 Z M7.6091623,10.4209368 C7.6091623,10.0396138 7.67955953,9.69857659 7.8203561,9.39781483 C7.96115268,9.09705307 8.15442507,8.83389048 8.40017909,8.60831916 C8.6459331,8.38274784 8.93648167,8.19074656 9.27183351,8.03230956 C9.60718534,7.87387257 9.97069104,7.7449766 10.3623615,7.64561781 C10.754032,7.54625901 11.1636158,7.47241237 11.5911254,7.42407566 C12.018635,7.37573894 12.4499781,7.34620029 12.8851675,7.33545879 L12.8851675,6.81986979 C12.8851675,6.41169311 12.8557286,6.06394254 12.7968501,5.77660765 C12.7379715,5.48927275 12.6368555,5.25564882 12.493499,5.07572884 C12.3501424,4.89580886 12.1568701,4.76422756 11.913676,4.68098101 C11.6704819,4.59773445 11.3645739,4.55611179 10.9959429,4.55611179 C10.6887504,4.55611179 10.3956419,4.58833578 10.1166087,4.65278473 C9.83757551,4.71723368 9.57902568,4.79510832 9.34095148,4.886411 C9.10287727,4.97771368 8.88912569,5.07438565 8.6996903,5.17642982 C8.51025491,5.27847399 8.35410105,5.36708996 8.23122405,5.4422804 L8.22354427,5.4422804 L7.87795441,4.71723336 C7.92403329,4.66889665 8.00723002,4.60444866 8.12754709,4.52388748 C8.24786416,4.44332629 8.39377842,4.35739565 8.56529424,4.26609297 C8.73681007,4.1747903 8.92880251,4.08348899 9.14127734,3.99218631 C9.35375216,3.90088364 9.57774335,3.81763833 9.81325762,3.74244789 C10.0487719,3.66725745 10.2906824,3.6054948 10.5389963,3.55715809 C10.7873103,3.50882138 11.0317807,3.48465338 11.2724148,3.48465338 C11.8048818,3.48465338 12.2541442,3.54238803 12.6202152,3.65785907 C12.9862863,3.7733301 13.2819547,3.95861805 13.5072292,4.21372847 C13.7325037,4.46883889 13.8937774,4.79779213 13.991055,5.20059805 C14.0883326,5.60340398 14.1369707,6.09481984 14.1369707,6.67486038 L14.1369707,12.1127132 L15.1199819,12.1127132 L15.1199819,12.7249752 C15.032944,12.7518289 14.9292681,12.7800249 14.808951,12.809564 C14.6886339,12.8391031 14.5619189,12.8659564 14.4288022,12.8901248 C14.2956854,12.9142931 14.1612907,12.9357758 14.025614,12.9545734 C13.8899373,12.973371 13.7632223,12.9827697 13.6454651,12.9827697 C13.5328279,12.9827697 13.4342718,12.977399 13.3497938,12.9666575 C13.2653159,12.955916 13.1961986,12.9263774 13.1424399,12.8780406 C13.0886812,12.8297039 13.0490028,12.7585426 13.0234034,12.6645546 C12.997804,12.5705665 12.9850045,12.4430132 12.9850045,12.2818909 L12.9850045,11.677685 C12.8877269,11.7689877 12.7520522,11.8898276 12.5779765,12.0402085 C12.4039007,12.1905894 12.1991088,12.3382827 11.9635945,12.4832928 C11.7280802,12.6283029 11.4644106,12.7531709 11.1725777,12.8579004 C10.8807448,12.96263 10.5684371,13.014994 10.2356452,13.014994 C9.8874937,13.014994 9.55470679,12.9639727 9.23727452,12.8619285 C8.91984225,12.7598843 8.64081323,12.6027924 8.40017909,12.3906479 C8.15954495,12.1785035 7.9675525,11.9099702 7.82419599,11.5850401 C7.68083948,11.26011 7.6091623,10.8720794 7.6091623,10.4209368 L7.6091623,10.4209368 Z M9.00688128,10.2598152 C9.00688128,10.5874307 9.05039957,10.8640199 9.13743745,11.0895913 C9.22447533,11.3151626 9.3447906,11.4977652 9.49838686,11.6374046 C9.65198312,11.777044 9.83117607,11.8777439 10.0359711,11.9395075 C10.2407661,12.0012711 10.4634773,12.0321524 10.7041115,12.0321524 C10.8628276,12.0321524 11.0356208,12.0039564 11.2224963,11.9475636 C11.4093717,11.8911708 11.6000842,11.8173241 11.7946395,11.7260215 C11.9891947,11.6347188 12.1799072,11.5286481 12.3667827,11.4078064 C12.5536581,11.2869646 12.7264513,11.1620966 12.8851675,11.0331987 L12.8851675,8.10884231 C12.2298234,8.11421305 11.6589659,8.17060504 11.1725777,8.27801995 C10.6861896,8.38543487 10.2830054,8.53312816 9.96301322,8.72110426 C9.64302101,8.90908036 9.40367043,9.13464829 9.2449543,9.39781483 C9.08623816,9.66098137 9.00688128,9.94831196 9.00688128,10.2598152 L9.00688128,10.2598152 Z M17.7674562,4.65278473 L16.5770911,4.65278473 L16.5770911,4.00024239 C16.6436495,3.98413015 16.7230064,3.96533283 16.8151641,3.94384984 C16.9073219,3.92236686 16.9981983,3.89954153 17.0877961,3.87537318 C17.1773939,3.85120482 17.2593107,3.8283795 17.3335489,3.80689651 C17.4077871,3.78541353 17.460265,3.76393087 17.4909843,3.74244789 C17.5729023,3.68874043 17.6407396,3.62160712 17.6944983,3.54104593 C17.748257,3.46048475 17.7956151,3.35575677 17.8365741,3.22685888 C17.8672934,3.13018546 17.9069718,2.99189083 17.9556106,2.81197085 C18.0042495,2.63205087 18.0528875,2.44407759 18.1015264,2.24804537 C18.1501652,2.05201315 18.1936835,1.86806787 18.2320825,1.69620401 C18.2704816,1.52434015 18.2973605,1.40081485 18.3127202,1.32562441 L19.0422988,1.32562441 L19.0422988,3.67799926 L21.8300569,3.67799926 L21.8300569,4.65278473 L19.0422988,4.65278473 L19.0422988,9.98590854 C19.0422988,10.4477927 19.0525383,10.8103126 19.0730179,11.0734791 C19.0934974,11.3366456 19.1382956,11.5340176 19.2074139,11.6656009 C19.2765322,11.7971841 19.3750883,11.8790868 19.5030852,11.9113113 C19.6310821,11.9435357 19.8025954,11.9596477 20.0176301,11.9596477 L20.0253099,11.9596477 C20.184026,11.9596477 20.3542593,11.9462211 20.5360149,11.9193673 C20.7177705,11.8925136 20.8944035,11.8589469 21.0659194,11.8186664 C21.2374352,11.7783858 21.3961489,11.7340778 21.5420654,11.6857411 C21.6879818,11.6374043 21.8044573,11.5917537 21.8914951,11.5487877 L21.8991749,11.5487877 L22.098849,12.1691058 C21.9862118,12.2604084 21.8249381,12.3557377 21.6150232,12.4550965 C21.4051084,12.5544553 21.1759974,12.644414 20.9276834,12.7249752 C20.6793695,12.8055363 20.4246595,12.8740123 20.1635458,12.9304052 C19.9024322,12.986798 19.6643616,13.014994 19.4493268,13.014994 L19.4339673,13.014994 C19.1779735,13.014994 18.9475826,12.986798 18.7427875,12.9304052 C18.5379925,12.8740123 18.3639194,12.774655 18.2205629,12.6323303 C18.0772064,12.4900055 17.9658507,12.3006895 17.8864927,12.0643767 C17.8071346,11.8280639 17.7674562,11.529992 17.7674562,11.170152 L17.7674562,4.65278473 Z M23.6020369,8.20551525 C23.6020369,7.49657682 23.7031529,6.84941167 23.905388,6.26400039 C24.1076231,5.6785891 24.389212,5.17508925 24.7501632,4.75348571 C25.1111144,4.33188217 25.5373377,4.0042716 26.0288457,3.77064416 C26.5203537,3.53701672 27.0553727,3.42020476 27.6339186,3.42020476 C28.5657359,3.42020476 29.2914673,3.69679401 29.8111347,4.24998082 C30.330802,4.80316763 30.6085511,5.61682339 30.6443902,6.69097253 C30.6495101,7.00784653 30.6469502,7.28309312 30.6367105,7.51672056 C30.6264707,7.75034799 30.6008717,7.95846127 30.5599127,8.14106662 L24.961357,8.14106662 L24.961357,8.2417676 C24.961357,8.27667745 24.9639169,8.3102441 24.9690368,8.34246858 C24.9843964,8.98158732 25.0701531,9.53476583 25.2263093,10.0020207 C25.3824655,10.4692756 25.5885373,10.8559635 25.8445311,11.162096 C26.1005249,11.4682285 26.3961932,11.6964817 26.7315451,11.8468626 C27.0668969,11.9972435 27.4240029,12.0724328 27.8028736,12.0724328 C28.0281482,12.0724328 28.2572591,12.0496075 28.4902135,12.0039562 C28.7231678,11.9583048 28.947159,11.8965422 29.1621937,11.8186664 C29.3772285,11.7407905 29.5769006,11.6508319 29.7612162,11.5487877 C29.9455317,11.4467436 30.0991256,11.3420156 30.2220026,11.2346007 L30.4754352,11.8388065 C30.3269588,11.9999289 30.1388062,12.1516502 29.9109718,12.293975 C29.6831373,12.4362997 29.4335471,12.5611677 29.1621937,12.6685826 C28.8908403,12.7759975 28.6041316,12.8605855 28.302059,12.9223491 C27.9999863,12.9841126 27.6979182,13.014994 27.3958456,13.014994 C26.7712208,13.014994 26.2234023,12.8968393 25.7523738,12.6605265 C25.2813453,12.4242137 24.8858408,12.0939178 24.5658486,11.6696289 C24.2458564,11.24534 24.0052259,10.7378121 23.8439498,10.1470301 C23.6826738,9.55624808 23.6020369,8.90908293 23.6020369,8.20551525 L23.6020369,8.20551525 Z M29.2389915,7.36768311 C29.2492312,7.2495267 29.2581909,7.12868674 29.2658707,7.00515959 C29.2735505,6.88163243 29.2773904,6.75810714 29.2773904,6.63457999 C29.2773904,6.29622301 29.2402718,5.98338176 29.1660336,5.69604687 C29.0917954,5.40871197 28.97532,5.16031871 28.8166039,4.95085963 C28.6578877,4.74140055 28.4543758,4.57625259 28.2060618,4.45541081 C27.9577478,4.33456904 27.6595196,4.27414905 27.3113681,4.27414905 C26.9990557,4.27414905 26.7085071,4.3278557 26.4397136,4.43527062 C26.1709202,4.54268553 25.9341295,4.71723215 25.7293345,4.95891571 C25.5245395,5.20059926 25.3568661,5.51881117 25.2263093,5.91356098 C25.0957524,6.30831079 25.0125557,6.79301332 24.9767166,7.36768311 L29.2389915,7.36768311 Z" id="rate"></path>
                <path d="M48.0887423,1.03829095 L46.737102,0.89328154 L46.737102,0.28907567 L49.0333546,0.00711293063 L49.0640737,0.00711293063 L49.3559051,0.2407392 L49.3559051,5.25161988 C49.4941417,5.11735124 49.6554154,4.98174195 49.8397309,4.84478793 C50.0240464,4.70783391 50.2288384,4.58430862 50.4541129,4.47420833 C50.6793874,4.36410804 50.9251377,4.27549207 51.1913712,4.20835775 C51.4576048,4.14122343 51.7443135,4.10765677 52.051506,4.10765677 C52.4918153,4.10765677 52.9180385,4.19358741 53.3301885,4.36545127 C53.7423384,4.53731514 54.108404,4.80450573 54.4283962,5.16703106 C54.7483885,5.5295564 55.0056583,5.9954616 55.2002136,6.56476064 C55.3947689,7.13405968 55.492045,7.81344882 55.492045,8.60294844 C55.492045,9.30651613 55.3883691,9.96710794 55.1810142,10.5847437 C54.9736592,11.2023795 54.6754309,11.7421313 54.2863204,12.2040154 C53.8972099,12.6658996 53.4261884,13.0311048 52.8732419,13.2996421 C52.3202953,13.5681794 51.6982398,13.702446 51.0070567,13.702446 C50.6486654,13.702446 50.3043589,13.6796207 49.974127,13.6339693 C49.643895,13.588318 49.3482266,13.5332687 49.087113,13.4688197 C48.8259994,13.4043708 48.607128,13.3358948 48.4304923,13.2633897 C48.2538566,13.1908847 48.1399411,13.125094 48.0887423,13.0660158 L48.0887423,1.03829095 Z M49.3559051,12.2765201 C49.3968641,12.3731936 49.474941,12.4577815 49.5901382,12.5302866 C49.7053354,12.6027917 49.84357,12.6645543 50.0048461,12.7155764 C50.1661221,12.7665985 50.3440351,12.8041931 50.5385904,12.8283615 C50.7331457,12.8525298 50.927698,12.8646138 51.1222533,12.8646138 C51.5472029,12.8646138 51.9401475,12.7827112 52.3010987,12.6189035 C52.6620499,12.4550957 52.9743576,12.2080451 53.2380312,11.8777443 C53.5017048,11.5474434 53.7103366,11.1298742 53.8639328,10.6250241 C54.0175291,10.120174 54.0994458,9.52403016 54.1096856,8.83657471 C54.1148055,8.18134374 54.049528,7.61876656 53.9138513,7.14882631 C53.7781746,6.67888607 53.592582,6.29354084 53.3570677,5.99277908 C53.1215534,5.69201732 52.8463642,5.47182005 52.5314919,5.33218067 C52.2166196,5.19254128 51.8825527,5.12272263 51.5292813,5.12272263 C51.2835273,5.12272263 51.0492965,5.15763195 50.826582,5.22745165 C50.6038674,5.29727134 50.3977955,5.38588732 50.2083601,5.49330223 C50.0189247,5.60071714 49.8525313,5.71618645 49.7091747,5.8397136 C49.5658182,5.96324075 49.4480629,6.07602472 49.3559051,6.17806888 L49.3559051,12.2765201 Z M57.2097546,12.8082213 L58.592114,12.679324 L58.592114,5.45302184 L57.3556703,5.16300302 L57.3556703,4.42184382 L59.513687,4.16404932 L59.5520859,4.16404932 L59.8592769,4.42184382 L59.8592769,12.6873801 L61.2339565,12.8082213 L61.2339565,13.5171562 L57.2097546,13.5171562 L57.2097546,12.8082213 Z M58.968423,2.4642168 C58.845546,2.4642168 58.7354703,2.43870614 58.6381927,2.38768406 C58.5409151,2.33666197 58.4577183,2.26952866 58.3886,2.1862821 C58.3194817,2.10303554 58.2670038,2.0050209 58.2311646,1.89223525 C58.1953255,1.77944959 58.1774062,1.65860962 58.1774062,1.52971172 C58.1774062,1.39007234 58.1966055,1.25446304 58.2350045,1.12287977 C58.2734036,0.991296501 58.3310013,0.873141868 58.4077995,0.768412327 C58.4845976,0.663682786 58.5805938,0.580437476 58.695791,0.518673901 C58.8109882,0.456910325 58.9453829,0.426029001 59.0989792,0.426029001 L59.1066589,0.426029001 C59.2397757,0.426029001 59.3575311,0.454224993 59.4599286,0.510617822 C59.5623261,0.567010652 59.6480827,0.639514632 59.717201,0.728131936 C59.7863193,0.81674924 59.8375173,0.918791877 59.8707965,1.03426291 C59.9040757,1.14973394 59.9207151,1.26386058 59.9207151,1.37664624 C59.9207151,1.52702712 59.9015158,1.66800708 59.8631167,1.79959035 C59.8247177,1.93117361 59.7671199,2.04664292 59.6903218,2.14600171 C59.6135237,2.24536051 59.5149676,2.32323515 59.3946505,2.37962798 C59.2743334,2.43602081 59.1348189,2.4642168 58.9761028,2.4642168 L58.968423,2.4642168 Z M67.4366545,6.17806888 L68.4196656,5.21133949 L64.1420312,5.34023674 L63.9116379,6.88700377 L63.0591829,6.88700377 L63.0591829,4.36545127 L69.6023509,4.36545127 L69.871143,4.97771322 L64.9407277,11.7367629 L63.942357,12.679324 L68.6423791,12.5262586 L69.1415644,10.721697 L69.940261,10.8344821 L69.7098678,13.5171562 L62.7443122,13.5171562 L62.4601605,12.8968382 L67.4366545,6.17806888 Z" id="biz"></path>
            </g>
        </g>
    </g>
</svg>